<svg width="60" height="60" viewBox="0 0 60 60" fill="none" xmlns="http://www.w3.org/2000/svg">
<path d="M24.8534 35.7934C23.4003 35.7934 22.0597 35.1277 21.1878 33.9652C20.8784 33.5527 20.9534 32.9621 21.3659 32.6527C21.7784 32.3434 22.369 32.4184 22.6784 32.8309C23.2034 33.5246 23.9909 33.9184 24.8534 33.9184C25.7159 33.9184 26.5034 33.5246 27.0284 32.8309C27.3378 32.4184 27.9284 32.334 28.3409 32.6527C28.7534 32.9621 28.8378 33.5527 28.519 33.9652C27.6378 35.1277 26.2972 35.7934 24.8534 35.7934ZM38.2784 32.8309C37.7534 33.5246 36.9659 33.9184 36.1034 33.9184C35.2409 33.9184 34.4534 33.5246 33.9284 32.8309C33.619 32.4184 33.0284 32.334 32.6159 32.6527C32.2034 32.9621 32.119 33.5527 32.4378 33.9652C33.319 35.1277 34.6597 35.7934 36.1034 35.7934C37.5472 35.7934 38.8972 35.1277 39.769 33.9652C40.0784 33.5527 40.0034 32.9621 39.5909 32.6527C39.1784 32.3434 38.5878 32.4184 38.2784 32.8309ZM32.5597 42.5152C32.0909 42.9465 31.3128 43.1996 30.4878 43.1996C29.6628 43.1996 28.8847 42.9465 28.4159 42.5152C28.0315 42.1684 27.4409 42.1965 27.094 42.5809C26.7472 42.9652 26.7753 43.5559 27.1597 43.9027C27.9753 44.6434 29.194 45.0652 30.4878 45.0652C31.7815 45.0652 33.0003 44.6434 33.8159 43.9027C34.2003 43.5559 34.2284 42.9652 33.8815 42.5809C33.5347 42.1965 32.944 42.1684 32.5597 42.5152ZM54.9378 49.6777C54.9378 50.0621 54.694 50.409 54.3284 50.5402C51.3659 51.6465 50.044 54.8434 50.0253 54.8715C49.8847 55.2277 49.5378 55.4527 49.1534 55.4527C48.769 55.4527 48.4315 55.2184 48.2815 54.8715C46.9878 51.6559 44.0159 50.559 43.9878 50.5496C43.6315 50.4184 43.3784 50.0809 43.369 49.7059C43.3503 49.3215 43.5753 48.9652 43.9222 48.8152C47.3065 47.3152 48.2253 44.634 48.2628 44.5215C48.3847 44.1371 48.7409 43.884 49.144 43.8746C49.519 43.8371 49.9034 44.1184 50.0347 44.4934C51.0847 47.4465 54.3097 48.7777 54.3378 48.7871C54.694 48.9277 54.9284 49.284 54.9284 49.6684L54.9378 49.6777ZM52.0128 49.6402C51.1128 49.0402 49.9972 48.1309 49.1534 46.8559C48.5722 47.7184 47.6628 48.7684 46.294 49.659C47.194 50.2496 48.3003 51.1777 49.1815 52.5371C49.7815 51.6277 50.7097 50.5027 52.0128 49.6402ZM39.2909 50.2496V56.2496C39.2909 56.7652 38.869 57.1871 38.3534 57.1871C37.8378 57.1871 37.4159 56.7652 37.4159 56.2496V51.3371C35.2972 52.3777 32.9347 52.9684 30.4784 52.9684C30.3847 52.9684 30.2909 52.9684 30.1878 52.9684C27.6753 52.9215 25.2659 52.2371 23.119 51.0559V56.2496C23.119 56.7652 22.6972 57.1871 22.1815 57.1871C21.6659 57.1871 21.244 56.7652 21.244 56.2496V49.8465C19.0409 48.1871 17.2409 45.9465 16.0878 43.3027C14.269 45.0934 13.4347 47.1277 13.4253 47.1559C13.2847 47.5121 12.9378 47.7465 12.5534 47.7465C12.169 47.7465 11.8222 47.5121 11.6815 47.1559C9.89092 42.7027 5.71904 41.1465 5.68154 41.1371C5.32529 41.0059 5.07217 40.6684 5.06279 40.284C5.05342 39.8996 5.26904 39.5527 5.61592 39.3934C8.25029 38.2215 9.80654 36.5434 10.6784 35.2496C10.1065 33.384 9.89092 31.9684 9.88154 31.9027C8.16592 22.8184 14.1659 16.359 14.419 16.0871C15.394 14.8871 16.519 13.8746 17.7097 13.0121C18.7503 7.16211 23.8972 2.80273 29.869 2.80273H31.0878C37.0784 2.80273 42.2347 7.18086 43.2565 13.0496C44.4565 13.9215 45.6003 14.9246 46.5847 16.134C46.7909 16.3496 52.7909 22.809 51.0753 31.9309C51.0284 32.2215 49.819 40.0215 45.3472 43.3777C45.2159 43.4809 45.0659 43.5277 44.9065 43.5465C43.6878 46.3027 41.719 48.609 39.2815 50.2402L39.2909 50.2496ZM37.3222 11.9715C37.5191 12.3934 37.6597 12.8059 37.7347 13.1527C38.3722 17.4746 35.9815 19.4902 34.9315 20.1559C34.6034 20.3621 34.2284 20.5121 33.8347 20.634C45.0003 24.909 45.1034 32.184 45.0753 33.0559L45.5909 40.5746C48.3659 37.2277 49.2284 31.6965 49.2284 31.6309C50.7753 23.4371 45.2347 17.4465 45.1784 17.3902C43.0034 14.7277 40.0409 13.0496 37.3128 11.9809L37.3222 11.9715ZM20.044 11.5496C25.1253 8.78398 30.4784 8.31524 30.7972 8.29648C32.4753 8.18398 33.7972 8.56836 34.819 9.17773C36.6472 9.66523 38.8128 10.434 40.9315 11.5871C39.4409 7.53711 35.5409 4.69648 31.0878 4.69648H29.869C25.4347 4.69648 21.544 7.52773 20.044 11.559V11.5496ZM11.7284 31.5934C11.7284 31.5934 11.8128 32.1371 12.0003 32.9246C12.1503 32.8121 12.3378 32.7465 12.5347 32.7465C12.9284 32.7371 13.294 32.9902 13.4347 33.3652C13.9315 34.7527 14.7565 35.8684 15.6378 36.759L15.8909 33.0465C15.8534 32.034 15.9753 22.5184 33.0284 18.909C33.3659 18.834 33.6659 18.7215 33.9284 18.5527C35.0628 17.8402 36.319 16.3777 35.8878 13.4809C35.869 13.4059 35.0065 9.88086 30.9284 10.1527C30.844 10.1527 20.944 11.034 15.8253 17.3246C15.7222 17.4371 10.1909 23.4277 11.7284 31.584V31.5934ZM17.0065 40.209C15.6565 39.384 13.8097 37.959 12.5347 35.8309C11.7472 37.1152 10.3503 38.8402 8.05342 40.2277C9.38467 41.034 11.2222 42.4496 12.5722 44.7371C13.4065 43.3777 14.8409 41.5027 17.0065 40.1996V40.209ZM43.7628 41.3152L43.2003 33.1215C43.2003 33.1215 43.2003 33.0371 43.2003 32.9902C43.2191 32.6809 43.4534 25.2184 30.4784 21.4777C17.5222 25.209 17.7659 32.6621 17.7753 32.9996V33.1215L17.419 38.2309C18.5253 38.9902 19.4159 39.3559 19.4347 39.3652C19.7909 39.5059 20.0253 39.8621 20.0253 40.2465C20.0253 40.6309 19.7815 40.9777 19.4159 41.1184C18.7503 41.3715 18.1503 41.6996 17.6065 42.0652C19.7065 47.3902 24.6847 50.9996 30.2253 51.1027H30.4784C36.544 51.1027 41.9534 47.1184 43.7628 41.3246V41.3152Z" fill="#111928"/>
</svg>
