<svg width="60" height="60" viewBox="0 0 60 60" fill="none" xmlns="http://www.w3.org/2000/svg">
<path d="M44.6602 13.9498L45.7474 12.368C46.2743 11.5442 45.971 10.9893 45.7651 10.4946L44.7649 8.54785" stroke="#111928" stroke-width="1.75781" stroke-miterlimit="10" stroke-linecap="round" stroke-linejoin="round"/>
<path d="M22.4646 35.2109L2.08594 56.6131" stroke="#111928" stroke-width="1.75781" stroke-miterlimit="10" stroke-linecap="round" stroke-linejoin="round"/>
<path d="M41.2107 9.25453C43.9719 9.30727 47.0927 7.69512 44.2045 2.88867L38.2651 5.77055C36.9016 6.43195 36.3326 8.07352 36.994 9.43699L39.3774 14.964L36.8383 15.0604C36.0438 15.0905 35.2929 15.4317 34.7475 16.0104L29.7942 21.2667C28.7469 22.3781 29.1786 24.1985 30.6135 24.7212L39.2862 28.3938C40.313 28.7679 41.4581 28.3252 41.9664 27.3577C42.5817 26.1863 42.0218 24.7411 40.7778 24.2899L35.1553 21.9846L37.0805 19.9637" stroke="#111928" stroke-width="1.75781" stroke-miterlimit="10" stroke-linecap="round" stroke-linejoin="round"/>
<path d="M26.6941 37.9648L12.5664 53.0187" stroke="#111928" stroke-width="1.75781" stroke-miterlimit="10" stroke-linecap="round" stroke-linejoin="round"/>
<path d="M33.5368 31.2864L40.0847 33.8778C42.0848 34.6693 42.445 37.3462 40.7253 38.6382L31.5067 45.5641C30.6106 46.2449 29.3408 46.1178 28.5973 45.2729C27.7746 44.3377 27.9182 42.9009 28.9097 42.1471L35.5845 37.0725L28.2387 34.6377C26.2676 33.7294 25.7551 31.1631 27.2259 29.5673L31.1546 25.3047" stroke="#111928" stroke-width="1.75781" stroke-miterlimit="10" stroke-linecap="round" stroke-linejoin="round"/>
<path d="M49.0505 10.4402L54.3849 5.88634C55.2356 5.16013 56.5139 5.26102 57.2401 6.11169C57.9663 6.96235 57.8654 8.24063 57.0147 8.96684L42.2539 21.5681" stroke="#111928" stroke-width="1.75781" stroke-miterlimit="10" stroke-linecap="round" stroke-linejoin="round"/>
<path d="M35.7199 15.3184L7.54573 22.8542C7.54573 22.8542 2.0903 26.7954 7.54573 31.8595L25.4542 22.242" stroke="#111928" stroke-width="1.75781" stroke-miterlimit="10" stroke-linecap="round" stroke-linejoin="round"/>
<path d="M10.2656 30.6006C11.2071 31.5274 12.1549 32.0788 13.0997 32.4414" stroke="#111928" stroke-width="1.75781" stroke-miterlimit="10" stroke-linecap="round" stroke-linejoin="round"/>
<path d="M16.9978 33.2832L10.2656 40.0357" stroke="#111928" stroke-width="1.75781" stroke-miterlimit="10" stroke-linecap="round" stroke-linejoin="round"/>
</svg>
