<svg width="48" height="48" viewBox="0 0 48 48" fill="none" xmlns="http://www.w3.org/2000/svg">
<path d="M44.6579 22.9767H31.4201C29.9278 22.9767 28.554 22.1637 27.8357 20.8557C27.137 19.5836 25.8009 18.793 24.3496 18.793C22.8982 18.793 21.5621 19.5836 20.8635 20.8557C20.1452 22.1638 18.7713 22.9767 17.279 22.9767H3.34375" stroke="#111928" stroke-width="1.40625" stroke-miterlimit="10" stroke-linecap="round" stroke-linejoin="round"/>
<path d="M3.77734 28.4229C6.30484 28.4229 6.30484 30.2979 8.83244 30.2979C11.36 30.2979 11.36 28.4229 13.8877 28.4229C16.4152 28.4229 16.4152 30.2979 18.9427 30.2979C21.4702 30.2979 21.4702 28.4229 23.9978 28.4229C26.5255 28.4229 26.5255 30.2979 29.0531 30.2979C31.5807 30.2979 31.5807 28.4229 34.1083 28.4229C36.6363 28.4229 36.6363 30.2979 39.1641 30.2979C41.692 30.2979 41.692 28.4229 44.22 28.4229" stroke="#111928" stroke-width="1.40625" stroke-miterlimit="10" stroke-linecap="round" stroke-linejoin="round"/>
<path d="M3.35138 41.0572C3.89493 41.0572 4.33556 40.6166 4.33556 40.0731C4.33556 39.5295 3.89493 39.0889 3.35138 39.0889C2.80782 39.0889 2.36719 39.5295 2.36719 40.0731C2.36719 40.6166 2.80782 41.0572 3.35138 41.0572Z" fill="#111928"/>
<path d="M8.12872 36.4947C8.67227 36.4947 9.11291 36.0541 9.11291 35.5106C9.11291 34.967 8.67227 34.5264 8.12872 34.5264C7.58517 34.5264 7.14453 34.967 7.14453 35.5106C7.14453 36.0541 7.58517 36.4947 8.12872 36.4947Z" fill="#111928"/>
<path d="M13.6756 41.0572C14.2191 41.0572 14.6598 40.6166 14.6598 40.0731C14.6598 39.5295 14.2191 39.0889 13.6756 39.0889C13.132 39.0889 12.6914 39.5295 12.6914 40.0731C12.6914 40.6166 13.132 41.0572 13.6756 41.0572Z" fill="#111928"/>
<path d="M18.4529 36.4947C18.9965 36.4947 19.4371 36.0541 19.4371 35.5106C19.4371 34.967 18.9965 34.5264 18.4529 34.5264C17.9094 34.5264 17.4688 34.967 17.4688 35.5106C17.4688 36.0541 17.9094 36.4947 18.4529 36.4947Z" fill="#111928"/>
<path d="M23.9998 41.0572C24.5434 41.0572 24.984 40.6166 24.984 40.0731C24.984 39.5295 24.5434 39.0889 23.9998 39.0889C23.4563 39.0889 23.0156 39.5295 23.0156 40.0731C23.0156 40.6166 23.4563 41.0572 23.9998 41.0572Z" fill="#111928"/>
<path d="M28.7772 36.4947C29.3207 36.4947 29.7613 36.0541 29.7613 35.5106C29.7613 34.967 29.3207 34.5264 28.7772 34.5264C28.2336 34.5264 27.793 34.967 27.793 35.5106C27.793 36.0541 28.2336 36.4947 28.7772 36.4947Z" fill="#111928"/>
<path d="M34.324 41.0572C34.8676 41.0572 35.3082 40.6166 35.3082 40.0731C35.3082 39.5295 34.8676 39.0889 34.324 39.0889C33.7805 39.0889 33.3398 39.5295 33.3398 40.0731C33.3398 40.6166 33.7805 41.0572 34.324 41.0572Z" fill="#111928"/>
<path d="M39.1014 36.4947C39.6449 36.4947 40.0856 36.0541 40.0856 35.5106C40.0856 34.967 39.6449 34.5264 39.1014 34.5264C38.5578 34.5264 38.1172 34.967 38.1172 35.5106C38.1172 36.0541 38.5578 36.4947 39.1014 36.4947Z" fill="#111928"/>
<path d="M44.6482 41.0572C45.1918 41.0572 45.6324 40.6166 45.6324 40.0731C45.6324 39.5295 45.1918 39.0889 44.6482 39.0889C44.1047 39.0889 43.6641 39.5295 43.6641 40.0731C43.6641 40.6166 44.1047 41.0572 44.6482 41.0572Z" fill="#111928"/>
<path d="M24 14.2642V10.1289" stroke="#111928" stroke-width="1.40625" stroke-miterlimit="10" stroke-linecap="round" stroke-linejoin="round"/>
<path d="M28.0117 15.927L30.9359 13.0029" stroke="#111928" stroke-width="1.40625" stroke-miterlimit="10" stroke-linecap="round" stroke-linejoin="round"/>
<path d="M19.9867 15.927L17.0625 13.0029" stroke="#111928" stroke-width="1.40625" stroke-miterlimit="10" stroke-linecap="round" stroke-linejoin="round"/>
</svg>
