<svg width="50" height="50" viewBox="0 0 50 50" fill="none" xmlns="http://www.w3.org/2000/svg">
<path d="M22.25 28.4371C22.25 29.4208 19.158 32 15.3438 32C11.5295 32 8.4375 29.4208 8.4375 28.4371C8.4375 27.4533 11.5295 28.4376 15.3438 28.4376C19.158 28.4376 22.25 27.4533 22.25 28.4371Z" fill="#9E9E9E"/>
<path d="M41.375 28.4371C41.375 29.4208 38.283 32 34.4688 32C30.6545 32 27.5625 29.4208 27.5625 28.4371C27.5625 27.4533 30.6545 28.4376 34.4688 28.4376C38.283 28.4376 41.375 27.4533 41.375 28.4371Z" fill="#9E9E9E"/>
<path d="M46.75 20.0503C45.367 20.1187 42.2394 19.7834 40.7926 17.8951C38.984 15.5348 35.5798 12.8665 31.4309 12.9692C27.2819 13.0718 17.6011 11.9429 16.75 3.11719" stroke="#111928" stroke-width="1.82664" stroke-linecap="round"/>
<path d="M10.75 24.8947L11.744 24.2939C12.6717 25.2093 15.4217 26.611 19 24.8947" stroke="#111928" stroke-width="1.82664" stroke-linecap="round"/>
<path d="M39.25 24.8947L38.1657 24.2939C37.1536 25.2093 34.1536 26.611 30.25 24.8947" stroke="#111928" stroke-width="1.82664" stroke-linecap="round"/>
<path d="M13.079 11.0465C12.7914 12.1966 11.8926 14.8216 10.5985 16.1205C8.98074 17.7442 7.03948 19.5708 5.20607 19.9767C3.37265 20.3827 1 21.4989 1 23.833C1 26.167 3.4805 30.4292 5.961 31.3425C6.71594 34.7928 11.2455 49 24.2951 49C37.3447 49 42.3057 37.6342 43.9234 31.3425C48.5609 29.0085 50.9336 23.833 47.051 19.9767C49.4237 13.0761 45.649 5.5666 39.6095 1" stroke="#111928" stroke-width="1.82664" stroke-linecap="round"/>
<path d="M31 39.8232C30.0526 39.3527 27.5263 38.4115 25 38.4115C22.4737 38.4115 19.9474 39.3527 19 39.8232" stroke="#111928" stroke-width="1.82664" stroke-linecap="round"/>
</svg>
