<svg width="49" height="41" viewBox="0 0 49 41" fill="none" xmlns="http://www.w3.org/2000/svg">
<path d="M9.07901 22.6601C8.15383 21.733 10.7972 18.9517 12.1189 17.4948C14.752 14.3161 19.3882 16.3028 21.8994 17.4948C24.4106 18.6868 22.2959 24.6468 21.8994 27.5606C21.5029 30.4744 13.7049 31.1366 13.9693 27.5606C14.2336 23.9846 10.0042 23.5872 9.07901 22.6601Z" fill="#BDBDBD"/>
<path d="M44.7751 16.0679C45.4967 15.8898 46.074 17.9891 46.3949 19.0582C47.1683 21.2689 44.8449 22.94 43.53 23.8112C42.2152 24.6824 39.9382 21.9089 38.6384 20.8628C37.3385 19.8166 39.3008 15.8331 40.9612 17.009C42.6216 18.1849 44.0536 16.2459 44.7751 16.0679Z" fill="#BDBDBD"/>
<path d="M29.9621 17.3027C25.4672 15.7902 26.8719 13.8653 26.8719 10.4278C27.0591 9.96952 27.3213 8.61288 26.8719 6.85292C26.3101 4.65298 27.855 2.45303 30.8048 3.6905C33.7547 4.92797 38.671 4.51548 40.2162 6.85292C41.7613 9.19037 40.4971 13.0403 37.8282 13.0403C35.1593 13.0403 34.4571 18.8151 29.9621 17.3027Z" fill="#9E9E9E"/>
<path d="M27.3582 27.8499C26.8344 27.2009 26.101 25.3187 27.3582 22.9823C27.9039 21.5915 30.8942 21.5915 33.1205 23.5386C35.3468 25.4856 37.966 22.9823 35.3468 27.8499C33.2515 31.744 29.148 29.4724 27.3582 27.8499Z" fill="#9E9E9E"/>
<path d="M6.07497 17.6847C5.24282 17.741 3.28073 17.2609 2.0895 14.8901C1.26406 13.6449 2.98085 11.1965 5.85321 10.4915C8.72557 9.78649 8.17964 6.20474 10.6614 11.1439C12.6468 15.0952 8.43101 17.1508 6.07497 17.6847Z" fill="#9E9E9E"/>
<path d="M10.1647 35.2185C9.66469 35.8768 8.04443 36.9972 5.56323 36.212C4.13027 35.9481 3.48211 32.9462 4.84012 30.3138C6.19813 27.6814 3.26396 25.563 8.43312 27.1988C12.5684 28.5075 11.3105 33.0906 10.1647 35.2185Z" fill="#9E9E9E"/>
<path d="M17.306 35.8597C16.2517 33.9365 17.1742 32.9748 20.2054 32.0132C23.1048 31.3263 26.1361 32.0132 25.7407 35.8597C25.3453 39.7063 25.3453 38.0578 23.2366 39.4315C21.128 40.8053 18.3603 37.783 17.306 35.8597Z" fill="#BDBDBD"/>
<path d="M22.4671 3.92178C24.4867 4.71208 24.3449 6.03597 22.5279 8.71077C20.6467 11.0918 17.8165 12.5102 15.7665 9.32542C13.7165 6.14062 14.7297 7.39698 15.5605 4.99911C16.3913 2.60124 20.4475 3.13148 22.4671 3.92178Z" fill="#BDBDBD"/>
<path d="M32.4234 40.5555C28.4974 41.3914 29.1743 37.3516 29.8512 34.5655C31.2051 32.058 31.8817 34.0083 33.2355 33.0331C34.5893 32.058 33.9124 31.5008 36.62 31.9187C39.3275 32.3366 42.5766 38.1874 39.8691 37.9088C37.1615 37.6302 36.3493 39.7197 32.4234 40.5555Z" fill="#BDBDBD"/>
</svg>
