<svg width="48" height="48" viewBox="0 0 48 48" fill="none" xmlns="http://www.w3.org/2000/svg">
<path fill-rule="evenodd" clip-rule="evenodd" d="M0.449219 21.1105C0.449219 20.8068 0.695462 20.5605 0.999219 20.5605H46.9992C47.303 20.5605 47.5492 20.8068 47.5492 21.1105C47.5492 21.4143 47.303 21.6605 46.9992 21.6605H0.999219C0.695462 21.6605 0.449219 21.4143 0.449219 21.1105Z" fill="#111928"/>
<path fill-rule="evenodd" clip-rule="evenodd" d="M0.449219 27.0002C0.449219 26.6964 0.695462 26.4502 0.999219 26.4502C2.48801 26.4502 3.72734 27.2229 4.84939 27.9224C4.90889 27.9595 4.96806 27.9964 5.02691 28.033C6.24151 28.7874 7.38401 29.4502 8.81922 29.4502C10.2327 29.4502 11.1367 28.8083 12.1765 28.0548L12.2071 28.0327C13.2298 27.2914 14.3905 26.4502 16.1792 26.4502C17.9093 26.4502 19.0552 27.2392 20.0953 27.9555C20.1397 27.9861 20.1839 28.0165 20.228 28.0468C21.3067 28.7873 22.3373 29.4502 23.9992 29.4502C24.8378 29.4502 25.4448 29.2808 25.9426 29.0374C26.4524 28.788 26.866 28.4535 27.3317 28.0739L27.3491 28.0598C27.7989 27.693 28.3005 27.284 28.9326 26.9749C29.5848 26.6558 30.3578 26.4502 31.3592 26.4502C33.3885 26.4502 34.5467 27.2967 35.5465 28.0638C35.5708 28.0825 35.5949 28.101 35.619 28.1195C36.5728 28.852 37.3518 29.4502 38.7192 29.4502C40.0595 29.4502 40.9347 28.877 42.0201 28.1662C42.0839 28.1244 42.1484 28.0821 42.2138 28.0395C43.3917 27.2713 44.7674 26.4502 46.9992 26.4502C47.303 26.4502 47.5492 26.6964 47.5492 27.0002C47.5492 27.304 47.303 27.5502 46.9992 27.5502C45.091 27.5502 43.9367 28.2291 42.8147 28.9609C42.7384 29.0106 42.6619 29.0609 42.5851 29.1115C41.5302 29.8053 40.3978 30.5502 38.7192 30.5502C36.9734 30.5502 35.9297 29.7468 34.9928 29.0256C34.954 28.9958 34.9154 28.9661 34.8769 28.9366C33.9217 28.2037 33.01 27.5502 31.3592 27.5502C30.5207 27.5502 29.9136 27.7196 29.4159 27.963C28.9061 28.2124 28.4924 28.5469 28.0267 28.9265L28.0094 28.9406C27.5595 29.3074 27.0579 29.7164 26.4259 30.0255C25.7736 30.3446 25.0007 30.5502 23.9992 30.5502C21.9811 30.5502 20.7117 29.7131 19.6054 28.9536C19.5798 28.936 19.5543 28.9185 19.5289 28.901C18.4546 28.163 17.5625 27.5502 16.1792 27.5502C14.7658 27.5502 13.8617 28.1921 12.8219 28.9456L12.7914 28.9677C11.7686 29.709 10.6079 30.5502 8.81922 30.5502C7.03443 30.5502 5.64693 29.713 4.44652 28.9674C4.41974 28.9508 4.39306 28.9342 4.36649 28.9177C3.15691 28.166 2.16585 27.5502 0.999219 27.5502C0.695462 27.5502 0.449219 27.304 0.449219 27.0002Z" fill="#111928"/>
<circle cx="4" cy="35" r="1" fill="#111928"/>
<circle cx="14" cy="35" r="1" fill="#111928"/>
<circle cx="19" cy="39" r="1" fill="#111928"/>
<circle cx="9" cy="39" r="1" fill="#111928"/>
<circle cx="29" cy="39" r="1" fill="#111928"/>
<circle cx="39" cy="39" r="1" fill="#111928"/>
<circle cx="24" cy="35" r="1" fill="#111928"/>
<circle cx="34" cy="35" r="1" fill="#111928"/>
<circle cx="44" cy="35" r="1" fill="#111928"/>
<path fill-rule="evenodd" clip-rule="evenodd" d="M12.6667 13.5502L2 13.5502L2 12.4502L12.6667 12.4502V13.5502Z" fill="#111928"/>
<path fill-rule="evenodd" clip-rule="evenodd" d="M29.5573 13.5502L18.8906 13.5502V12.4502L29.5573 12.4502V13.5502Z" fill="#111928"/>
<path fill-rule="evenodd" clip-rule="evenodd" d="M46.444 13.5502L35.7773 13.5502V12.4502L46.444 12.4502V13.5502Z" fill="#111928"/>
<path fill-rule="evenodd" clip-rule="evenodd" d="M4.38813 9.61129C4.60292 9.82607 4.60292 10.1743 4.38813 10.3891L1.77704 13.0002L4.38813 15.6113C4.60292 15.8261 4.60292 16.1743 4.38813 16.3891C4.17334 16.6039 3.8251 16.6039 3.61031 16.3891L0.61031 13.3891C0.395522 13.1743 0.395522 12.8261 0.61031 12.6113L3.61031 9.61129C3.8251 9.3965 4.17334 9.3965 4.38813 9.61129Z" fill="#111928"/>
<path fill-rule="evenodd" clip-rule="evenodd" d="M21.3881 9.61129C21.6029 9.82607 21.6029 10.1743 21.3881 10.3891L18.777 13.0002L21.3881 15.6113C21.6029 15.8261 21.6029 16.1743 21.3881 16.3891C21.1733 16.6039 20.8251 16.6039 20.6103 16.3891L17.6103 13.3891C17.3955 13.1743 17.3955 12.8261 17.6103 12.6113L20.6103 9.61129C20.8251 9.3965 21.1733 9.3965 21.3881 9.61129Z" fill="#111928"/>
<path fill-rule="evenodd" clip-rule="evenodd" d="M38.3881 9.61129C38.6029 9.82607 38.6029 10.1743 38.3881 10.3891L35.777 13.0002L38.3881 15.6113C38.6029 15.8261 38.6029 16.1743 38.3881 16.3891C38.1733 16.6039 37.8251 16.6039 37.6103 16.3891L34.6103 13.3891C34.3955 13.1743 34.3955 12.8261 34.6103 12.6113L37.6103 9.61129C37.8251 9.3965 38.1733 9.3965 38.3881 9.61129Z" fill="#111928"/>
<path fill-rule="evenodd" clip-rule="evenodd" d="M26.6119 16.3887C26.3971 16.1739 26.3971 15.8257 26.6119 15.6109L29.223 12.9998L26.6119 10.3887C26.3971 10.1739 26.3971 9.82568 26.6119 9.6109C26.8267 9.39611 27.1749 9.39611 27.3897 9.6109L30.3897 12.6109C30.6045 12.8257 30.6045 13.1739 30.3897 13.3887L27.3897 16.3887C27.1749 16.6035 26.8267 16.6035 26.6119 16.3887Z" fill="#111928"/>
<path fill-rule="evenodd" clip-rule="evenodd" d="M9.61187 16.3887C9.39708 16.1739 9.39708 15.8257 9.61187 15.6109L12.223 12.9998L9.61187 10.3887C9.39708 10.1739 9.39708 9.82568 9.61187 9.6109C9.82666 9.39611 10.1749 9.39611 10.3897 9.6109L13.3897 12.6109C13.6045 12.8257 13.6045 13.1739 13.3897 13.3887L10.3897 16.3887C10.1749 16.6035 9.82666 16.6035 9.61187 16.3887Z" fill="#111928"/>
<path fill-rule="evenodd" clip-rule="evenodd" d="M43.6119 16.3887C43.3971 16.1739 43.3971 15.8257 43.6119 15.6109L46.223 12.9998L43.6119 10.3887C43.3971 10.1739 43.3971 9.82568 43.6119 9.6109C43.8267 9.39611 44.1749 9.39611 44.3897 9.6109L47.3897 12.6109C47.6045 12.8257 47.6045 13.1739 47.3897 13.3887L44.3897 16.3887C44.1749 16.6035 43.8267 16.6035 43.6119 16.3887Z" fill="#111928"/>
</svg>
