<svg width="48" height="48" viewBox="0 0 48 48" fill="none" xmlns="http://www.w3.org/2000/svg">
<g clip-path="url(#clip0_6463_10663)">
<path d="M13.2502 21.7191C13.1445 21.7191 13.0409 21.6893 12.9514 21.6331C12.8618 21.5769 12.7899 21.4967 12.7439 21.4015C11.6583 19.1536 11.2989 16.6236 11.7157 14.1622C12.1325 11.7009 13.3049 9.43027 15.0701 7.66514C16.8354 5.90002 19.1061 4.72789 21.5675 4.31127C24.0289 3.89466 26.5589 4.25421 28.8067 5.34006C28.9382 5.4067 29.0382 5.52227 29.0853 5.66192C29.1325 5.80157 29.1229 5.95414 29.0587 6.08681C28.9945 6.21948 28.8808 6.32165 28.7421 6.37135C28.6033 6.42105 28.4506 6.41431 28.3167 6.35256C26.2792 5.3677 23.9856 5.04134 21.7542 5.41875C19.5228 5.79616 17.4641 6.85864 15.8637 8.45881C14.2634 10.059 13.2007 12.1175 12.823 14.3489C12.4453 16.5803 12.7714 18.8739 13.7561 20.9116C13.7976 20.9973 13.8166 21.0922 13.8114 21.1873C13.8062 21.2824 13.7769 21.3747 13.7263 21.4554C13.6757 21.5361 13.6055 21.6027 13.5221 21.6488C13.4388 21.6949 13.3451 21.7191 13.2498 21.7191H13.2502Z" fill="#111928"/>
<path d="M25.1769 8.49574C25.0543 8.49598 24.935 8.45617 24.8371 8.38238C24.7393 8.30859 24.6682 8.20485 24.6347 8.08695C24.6012 7.96905 24.6071 7.84343 24.6516 7.72921C24.696 7.61499 24.7766 7.51841 24.881 7.45418L27.7964 5.65793L26.0439 2.72618C25.9673 2.59813 25.9448 2.44491 25.9812 2.30023C26.0176 2.15556 26.11 2.03127 26.238 1.95471C26.3661 1.87815 26.5193 1.8556 26.664 1.89201C26.8086 1.92842 26.9329 2.02082 27.0095 2.14887L29.0469 5.55705C29.1227 5.68395 29.1456 5.83561 29.1105 5.97923C29.0754 6.12285 28.9852 6.24688 28.8594 6.32449L25.4714 8.41212C25.3829 8.46679 25.2809 8.49575 25.1769 8.49574Z" fill="#111928"/>
<path d="M23.6184 28.1911C21.813 28.1914 20.0311 27.7833 18.4059 26.9973C18.2744 26.9306 18.1743 26.8151 18.1272 26.6754C18.0801 26.5358 18.0896 26.3832 18.1538 26.2505C18.218 26.1178 18.3317 26.0157 18.4705 25.966C18.6092 25.9163 18.762 25.923 18.8958 25.9848C20.9333 26.9695 23.2268 27.2958 25.4582 26.9184C27.6895 26.5409 29.7481 25.4785 31.3484 23.8783C32.9487 22.2782 34.0114 20.2198 34.3891 17.9885C34.7668 15.7572 34.4408 13.4636 33.4563 11.4259C33.4222 11.3592 33.4018 11.2864 33.3962 11.2117C33.3906 11.137 33.4001 11.0619 33.4239 10.9909C33.4477 10.9199 33.4855 10.8544 33.535 10.7981C33.5845 10.7419 33.6448 10.6962 33.7122 10.6635C33.7797 10.6309 33.8529 10.6121 33.9277 10.6082C34.0025 10.6043 34.0774 10.6153 34.1479 10.6407C34.2183 10.6661 34.283 10.7053 34.3381 10.7561C34.3932 10.8068 34.4377 10.8681 34.4688 10.9362C35.3562 12.7709 35.7625 14.8011 35.6496 16.8361C35.5368 18.871 34.9084 20.8438 33.8235 22.5691C32.7387 24.2944 31.233 25.7156 29.448 26.6991C27.6629 27.6826 25.6571 28.1962 23.6191 28.1914L23.6184 28.1911Z" fill="#111928"/>
<path d="M20.6867 30.4622C20.5893 30.4622 20.4935 30.437 20.4087 30.3889C20.324 30.3408 20.2532 30.2715 20.2033 30.1879L18.1657 26.7801C18.0898 26.6532 18.0669 26.5014 18.102 26.3578C18.1371 26.2141 18.2274 26.09 18.3532 26.0124L21.7414 23.9254C21.8684 23.8471 22.0213 23.8225 22.1665 23.857C22.3116 23.8915 22.4371 23.9823 22.5154 24.1093C22.5936 24.2363 22.6182 24.3893 22.5837 24.5344C22.5492 24.6796 22.4585 24.8051 22.3314 24.8833L19.4162 26.6796L21.1691 29.6113C21.2202 29.6967 21.2477 29.794 21.2488 29.8935C21.25 29.9929 21.2248 30.0909 21.1758 30.1774C21.1267 30.2639 21.0556 30.3359 20.9697 30.386C20.8838 30.4361 20.7861 30.4625 20.6867 30.4626V30.4622Z" fill="#111928"/>
<path d="M23.6049 22.3684C22.4938 22.3672 21.4286 21.9252 20.6429 21.1396C19.8572 20.3539 19.4153 19.2887 19.4141 18.1776C19.4141 16.0821 22.7398 10.3232 23.1191 9.67334C23.1686 9.58849 23.2395 9.5181 23.3248 9.46919C23.41 9.42027 23.5065 9.39453 23.6048 9.39453C23.703 9.39453 23.7996 9.42027 23.8848 9.46919C23.97 9.5181 24.0409 9.58849 24.0905 9.67334C24.4698 10.3232 27.7955 16.0821 27.7955 18.1776C27.7943 19.2886 27.3524 20.3538 26.5667 21.1395C25.7811 21.9252 24.7159 22.3671 23.6049 22.3684ZM23.6049 11.094C22.4465 13.1717 20.5391 16.869 20.5391 18.1776C20.5346 18.583 20.6106 18.9853 20.7626 19.3612C20.9147 19.7371 21.1398 20.079 21.4249 20.3673C21.71 20.6556 22.0495 20.8845 22.4236 21.0407C22.7978 21.1969 23.1992 21.2773 23.6047 21.2773C24.0101 21.2773 24.4116 21.1969 24.7858 21.0407C25.1599 20.8845 25.4994 20.6556 25.7845 20.3673C26.0696 20.079 26.2947 19.7371 26.4468 19.3612C26.5988 18.9853 26.6748 18.583 26.6703 18.1776C26.6705 16.8671 24.7631 13.1715 23.6049 11.094Z" fill="#111928"/>
<path d="M24.4263 20.6657C24.3052 20.6658 24.1873 20.6268 24.0901 20.5545C23.9929 20.4823 23.9216 20.3806 23.8869 20.2645C23.8522 20.1485 23.8558 20.0244 23.8973 19.9106C23.9388 19.7968 24.0159 19.6994 24.1171 19.6329C24.4266 19.4308 24.6807 19.1546 24.8564 18.8294C25.0321 18.5041 25.1238 18.1402 25.1232 17.7705C25.1232 17.6213 25.1825 17.4782 25.288 17.3728C25.3935 17.2673 25.5366 17.208 25.6857 17.208C25.8349 17.208 25.978 17.2673 26.0835 17.3728C26.189 17.4782 26.2482 17.6213 26.2482 17.7705C26.249 18.3267 26.1109 18.8743 25.8466 19.3637C25.5823 19.8531 25.2001 20.2689 24.7346 20.5733C24.6431 20.6336 24.5359 20.6657 24.4263 20.6657Z" fill="#111928"/>
<path d="M47.4393 26.4375H34.5977C34.4485 26.4375 34.3054 26.3782 34.1999 26.2727C34.0944 26.1673 34.0352 26.0242 34.0352 25.875C34.0352 25.7258 34.0944 25.5827 34.1999 25.4773C34.3054 25.3718 34.4485 25.3125 34.5977 25.3125H47.4393C47.5885 25.3125 47.7316 25.3718 47.8371 25.4773C47.9426 25.5827 48.0018 25.7258 48.0018 25.875C48.0018 26.0242 47.9426 26.1673 47.8371 26.2727C47.7316 26.3782 47.5885 26.4375 47.4393 26.4375Z" fill="#111928"/>
<path d="M15.351 26.4375H0.5625C0.413316 26.4375 0.270242 26.3782 0.164752 26.2727C0.0592632 26.1673 0 26.0242 0 25.875C0 25.7258 0.0592632 25.5827 0.164752 25.4773C0.270242 25.3718 0.413316 25.3125 0.5625 25.3125H15.351C15.5002 25.3125 15.6433 25.3718 15.7487 25.4773C15.8542 25.5827 15.9135 25.7258 15.9135 25.875C15.9135 26.0242 15.8542 26.1673 15.7487 26.2727C15.6433 26.3782 15.5002 26.4375 15.351 26.4375Z" fill="#111928"/>
<path d="M47.4375 32.4375H0.5625C0.413316 32.4375 0.270242 32.3782 0.164752 32.2727C0.0592632 32.1673 0 32.0242 0 31.875C0 31.7258 0.0592632 31.5827 0.164752 31.4773C0.270242 31.3718 0.413316 31.3125 0.5625 31.3125H47.4375C47.5867 31.3125 47.7298 31.3718 47.8352 31.4773C47.9407 31.5827 48 31.7258 48 31.875C48 32.0242 47.9407 32.1673 47.8352 32.2727C47.7298 32.3782 47.5867 32.4375 47.4375 32.4375Z" fill="#111928"/>
<path d="M5.99219 40.4199C5.54718 40.4199 5.11217 40.288 4.74216 40.0407C4.37215 39.7935 4.08376 39.4421 3.91346 39.031C3.74316 38.6198 3.6986 38.1674 3.78542 37.731C3.87224 37.2945 4.08653 36.8936 4.4012 36.5789C4.71587 36.2643 5.11678 36.05 5.55324 35.9632C5.98969 35.8763 6.44209 35.9209 6.85323 36.0912C7.26436 36.2615 7.61576 36.5499 7.863 36.9199C8.11023 37.2899 8.24219 37.7249 8.24219 38.1699C8.24164 38.7665 8.00441 39.3385 7.58258 39.7603C7.16074 40.1821 6.58876 40.4194 5.99219 40.4199ZM5.99219 37.0449C5.76968 37.0449 5.55218 37.1109 5.36717 37.2345C5.18217 37.3581 5.03797 37.5338 4.95282 37.7394C4.86768 37.945 4.8454 38.1712 4.8888 38.3894C4.93221 38.6076 5.03936 38.8081 5.19669 38.9654C5.35403 39.1228 5.55448 39.2299 5.77271 39.2733C5.99094 39.3167 6.21714 39.2944 6.42271 39.2093C6.62827 39.1241 6.80398 38.9799 6.92759 38.7949C7.05121 38.6099 7.11719 38.3924 7.11719 38.1699C7.11694 37.8717 6.9983 37.5858 6.78735 37.375C6.5764 37.1643 6.29039 37.0459 5.99219 37.0459V37.0449Z" fill="#111928"/>
<path d="M12 46.125C11.555 46.125 11.12 45.993 10.75 45.7458C10.38 45.4986 10.0916 45.1472 9.92127 44.736C9.75097 44.3249 9.70642 43.8725 9.79323 43.436C9.88005 42.9996 10.0943 42.5987 10.409 42.284C10.7237 41.9693 11.1246 41.7551 11.561 41.6682C11.9975 41.5814 12.4499 41.626 12.861 41.7963C13.2722 41.9666 13.6236 42.255 13.8708 42.625C14.118 42.995 14.25 43.43 14.25 43.875C14.2495 44.4716 14.0122 45.0436 13.5904 45.4654C13.1685 45.8872 12.5966 46.1245 12 46.125ZM12 42.75C11.7775 42.75 11.56 42.816 11.375 42.9396C11.19 43.0632 11.0458 43.2389 10.9606 43.4445C10.8755 43.65 10.8532 43.8763 10.8966 44.0945C10.94 44.3127 11.0472 44.5132 11.2045 44.6705C11.3618 44.8278 11.5623 44.935 11.7805 44.9784C11.9988 45.0218 12.225 44.9995 12.4305 44.9144C12.6361 44.8292 12.8118 44.685 12.9354 44.5C13.059 44.315 13.125 44.0975 13.125 43.875C13.125 43.5766 13.0065 43.2905 12.7955 43.0795C12.5845 42.8685 12.2984 42.75 12 42.75Z" fill="#111928"/>
<path d="M24 46.125C23.555 46.125 23.12 45.993 22.75 45.7458C22.38 45.4986 22.0916 45.1472 21.9213 44.736C21.751 44.3249 21.7064 43.8725 21.7932 43.436C21.8801 42.9996 22.0943 42.5987 22.409 42.284C22.7237 41.9693 23.1246 41.7551 23.561 41.6682C23.9975 41.5814 24.4499 41.626 24.861 41.7963C25.2722 41.9666 25.6236 42.255 25.8708 42.625C26.118 42.995 26.25 43.43 26.25 43.875C26.2495 44.4716 26.0122 45.0436 25.5904 45.4654C25.1686 45.8872 24.5966 46.1245 24 46.125ZM24 42.75C23.7775 42.75 23.56 42.816 23.375 42.9396C23.19 43.0632 23.0458 43.2389 22.9606 43.4445C22.8755 43.65 22.8532 43.8763 22.8966 44.0945C22.94 44.3127 23.0472 44.5132 23.2045 44.6705C23.3618 44.8278 23.5623 44.935 23.7805 44.9784C23.9988 45.0218 24.225 44.9995 24.4305 44.9144C24.6361 44.8292 24.8118 44.685 24.9354 44.5C25.059 44.315 25.125 44.0975 25.125 43.875C25.125 43.5766 25.0065 43.2905 24.7955 43.0795C24.5845 42.8685 24.2984 42.75 24 42.75Z" fill="#111928"/>
<path d="M36 46.125C35.555 46.125 35.12 45.993 34.75 45.7458C34.38 45.4986 34.0916 45.1472 33.9213 44.736C33.751 44.3249 33.7064 43.8725 33.7932 43.436C33.8801 42.9996 34.0943 42.5987 34.409 42.284C34.7237 41.9693 35.1246 41.7551 35.561 41.6682C35.9975 41.5814 36.4499 41.626 36.861 41.7963C37.2722 41.9666 37.6236 42.255 37.8708 42.625C38.118 42.995 38.25 43.43 38.25 43.875C38.2495 44.4716 38.0122 45.0436 37.5904 45.4654C37.1686 45.8872 36.5966 46.1245 36 46.125ZM36 42.75C35.7775 42.75 35.56 42.816 35.375 42.9396C35.19 43.0632 35.0458 43.2389 34.9606 43.4445C34.8755 43.65 34.8532 43.8763 34.8966 44.0945C34.94 44.3127 35.0472 44.5132 35.2045 44.6705C35.3618 44.8278 35.5623 44.935 35.7805 44.9784C35.9988 45.0218 36.225 44.9995 36.4305 44.9144C36.6361 44.8292 36.8118 44.685 36.9354 44.5C37.059 44.315 37.125 44.0975 37.125 43.875C37.125 43.5766 37.0065 43.2905 36.7955 43.0795C36.5845 42.8685 36.2984 42.75 36 42.75Z" fill="#111928"/>
<path d="M18 40.4199C17.555 40.4199 17.12 40.288 16.75 40.0407C16.38 39.7935 16.0916 39.4421 15.9213 39.031C15.751 38.6198 15.7064 38.1674 15.7932 37.731C15.8801 37.2945 16.0943 36.8936 16.409 36.5789C16.7237 36.2643 17.1246 36.05 17.561 35.9632C17.9975 35.8763 18.4499 35.9209 18.861 36.0912C19.2722 36.2615 19.6236 36.5499 19.8708 36.9199C20.118 37.2899 20.25 37.7249 20.25 38.1699C20.2495 38.7665 20.0122 39.3385 19.5904 39.7603C19.1685 40.1821 18.5966 40.4194 18 40.4199ZM18 37.0449C17.7775 37.0449 17.56 37.1109 17.375 37.2345C17.19 37.3581 17.0458 37.5338 16.9606 37.7394C16.8755 37.945 16.8532 38.1712 16.8966 38.3894C16.94 38.6076 17.0472 38.8081 17.2045 38.9654C17.3618 39.1228 17.5623 39.2299 17.7805 39.2733C17.9988 39.3167 18.225 39.2944 18.4305 39.2093C18.6361 39.1241 18.8118 38.9799 18.9354 38.7949C19.059 38.6099 19.125 38.3924 19.125 38.1699C19.1248 37.8717 19.0061 37.5858 18.7952 37.375C18.5842 37.1643 18.2982 37.0459 18 37.0459V37.0449Z" fill="#111928"/>
<path d="M30.0078 40.4199C29.5628 40.4199 29.1278 40.288 28.7578 40.0407C28.3878 39.7935 28.0994 39.4421 27.9291 39.031C27.7588 38.6198 27.7142 38.1674 27.801 37.731C27.8879 37.2945 28.1022 36.8936 28.4168 36.5789C28.7315 36.2643 29.1324 36.05 29.5689 35.9632C30.0053 35.8763 30.4577 35.9209 30.8689 36.0912C31.28 36.2615 31.6314 36.5499 31.8786 36.9199C32.1259 37.2899 32.2578 37.7249 32.2578 38.1699C32.2573 38.7665 32.02 39.3385 31.5982 39.7603C31.1764 40.1821 30.6044 40.4194 30.0078 40.4199ZM30.0078 37.0449C29.7853 37.0449 29.5678 37.1109 29.3828 37.2345C29.1978 37.3581 29.0536 37.5338 28.9685 37.7394C28.8833 37.945 28.861 38.1712 28.9044 38.3894C28.9478 38.6076 29.055 38.8081 29.2123 38.9654C29.3697 39.1228 29.5701 39.2299 29.7883 39.2733C30.0066 39.3167 30.2328 39.2944 30.4383 39.2093C30.6439 39.1241 30.8196 38.9799 30.9432 38.7949C31.0668 38.6099 31.1328 38.3924 31.1328 38.1699C31.1326 37.8717 31.0139 37.5858 30.803 37.375C30.592 37.1643 30.306 37.0459 30.0078 37.0459V37.0449Z" fill="#111928"/>
<path d="M42.0195 40.4199C41.5745 40.4199 41.1395 40.288 40.7695 40.0407C40.3995 39.7935 40.1111 39.4421 39.9408 39.031C39.7705 38.6198 39.7259 38.1674 39.8128 37.731C39.8996 37.2945 40.1139 36.8936 40.4285 36.5789C40.7432 36.2643 41.1441 36.05 41.5806 35.9632C42.017 35.8763 42.4694 35.9209 42.8806 36.0912C43.2917 36.2615 43.6431 36.5499 43.8903 36.9199C44.1376 37.2899 44.2695 37.7249 44.2695 38.1699C44.269 38.7665 44.0318 39.3385 43.61 39.7604C43.1881 40.1822 42.6161 40.4194 42.0195 40.4199ZM42.0195 37.0449C41.797 37.0449 41.5795 37.1109 41.3945 37.2345C41.2095 37.3581 41.0653 37.5338 40.9802 37.7394C40.895 37.945 40.8727 38.1712 40.9161 38.3894C40.9596 38.6076 41.0667 38.8081 41.224 38.9654C41.3814 39.1228 41.5818 39.2299 41.8001 39.2733C42.0183 39.3167 42.2445 39.2944 42.4501 39.2093C42.6556 39.1241 42.8313 38.9799 42.9549 38.7949C43.0786 38.6099 43.1445 38.3924 43.1445 38.1699C43.1443 37.8717 43.0256 37.5858 42.8147 37.375C42.6037 37.1643 42.3177 37.0459 42.0195 37.0459V37.0449Z" fill="#111928"/>
</g>
<defs>
<clipPath id="clip0_6463_10663">
<rect width="48" height="48" fill="white"/>
</clipPath>
</defs>
</svg>
