<svg width="48" height="48" viewBox="0 0 48 48" fill="none" xmlns="http://www.w3.org/2000/svg">
<g clip-path="url(#clip0_6463_10689)">
<path d="M15.2968 15.8794C15.1855 15.8794 15.0768 15.8463 14.9843 15.7845C14.8918 15.7227 14.8198 15.6349 14.7772 15.5321C14.7346 15.4294 14.7235 15.3163 14.7452 15.2072C14.7669 15.0981 14.8204 14.9979 14.8991 14.9192L17.7318 12.0864C17.8381 11.9849 17.9798 11.929 18.1267 11.9307C18.2736 11.9324 18.4141 11.9914 18.518 12.0953C18.6219 12.1991 18.6811 12.3395 18.6828 12.4864C18.6846 12.6334 18.6288 12.7751 18.5274 12.8814L15.6952 15.7148C15.6429 15.767 15.5807 15.8085 15.5124 15.8367C15.444 15.865 15.3707 15.8795 15.2968 15.8794Z" fill="#111928"/>
<path d="M18.1294 13.0468C18.0555 13.0469 17.9824 13.0324 17.9141 13.0041C17.8459 12.9758 17.7839 12.9343 17.7317 12.882L14.899 10.0492C14.8468 9.99696 14.8053 9.93491 14.7771 9.86663C14.7489 9.79835 14.7343 9.72517 14.7344 9.65128C14.7344 9.57739 14.749 9.50423 14.7773 9.43597C14.8056 9.36772 14.8471 9.30571 14.8994 9.25348C14.9516 9.20126 15.0137 9.15984 15.082 9.1316C15.1503 9.10335 15.2234 9.08883 15.2973 9.08887C15.3712 9.0889 15.4444 9.10349 15.5126 9.1318C15.5809 9.16011 15.6429 9.20159 15.6951 9.25386L18.5273 12.0866C18.606 12.1653 18.6595 12.2655 18.6812 12.3746C18.7029 12.4838 18.6917 12.5969 18.6491 12.6996C18.6066 12.8024 18.5345 12.8902 18.4419 12.952C18.3494 13.0138 18.2407 13.0468 18.1294 13.0468Z" fill="#111928"/>
<path d="M18.1266 13.0469H4.94531C4.79613 13.0469 4.65305 12.9876 4.54757 12.8821C4.44208 12.7766 4.38281 12.6336 4.38281 12.4844C4.38281 12.3352 4.44208 12.1921 4.54757 12.0866C4.65305 11.9811 4.79613 11.9219 4.94531 11.9219H18.1266C18.2757 11.9219 18.4188 11.9811 18.5243 12.0866C18.6298 12.1921 18.6891 12.3352 18.6891 12.4844C18.6891 12.6336 18.6298 12.7766 18.5243 12.8821C18.4188 12.9876 18.2757 13.0469 18.1266 13.0469Z" fill="#111928"/>
<path d="M32.8919 15.8787C32.8181 15.8788 32.7449 15.8643 32.6767 15.8361C32.6084 15.8078 32.5464 15.7664 32.4942 15.7141L29.6615 12.8808C29.5574 12.775 29.4994 12.6324 29.5 12.484C29.5006 12.3356 29.5599 12.1935 29.6648 12.0885C29.7697 11.9836 29.9119 11.9244 30.0603 11.9238C30.2087 11.9232 30.3513 11.9813 30.457 12.0854L33.2898 14.9182C33.3684 14.9968 33.422 15.0971 33.4437 15.2062C33.4654 15.3153 33.4542 15.4284 33.4116 15.5312C33.3691 15.6339 33.2969 15.7218 33.2044 15.7836C33.1119 15.8454 33.0032 15.8784 32.8919 15.8783V15.8787Z" fill="#111928"/>
<path d="M30.0585 13.0463C29.9472 13.0463 29.8385 13.0133 29.746 12.9515C29.6535 12.8897 29.5815 12.8018 29.5389 12.6991C29.4963 12.5963 29.4852 12.4832 29.5069 12.3741C29.5286 12.265 29.5821 12.1648 29.6608 12.0861L32.4935 9.25337C32.5993 9.14929 32.7419 9.09121 32.8903 9.0918C33.0387 9.09239 33.1808 9.15159 33.2858 9.2565C33.3907 9.36142 33.45 9.50355 33.4506 9.65194C33.4512 9.80033 33.3932 9.94295 33.2891 10.0487L30.4563 12.8811C30.4042 12.9335 30.3422 12.9751 30.2739 13.0034C30.2056 13.0318 30.1324 13.0463 30.0585 13.0463Z" fill="#111928"/>
<path d="M43.2398 13.0469H30.0586C29.9094 13.0469 29.7663 12.9876 29.6608 12.8821C29.5554 12.7766 29.4961 12.6336 29.4961 12.4844C29.4961 12.3352 29.5554 12.1921 29.6608 12.0866C29.7663 11.9811 29.9094 11.9219 30.0586 11.9219H43.2398C43.389 11.9219 43.5321 11.9811 43.6376 12.0866C43.7431 12.1921 43.8023 12.3352 43.8023 12.4844C43.8023 12.6336 43.7431 12.7766 43.6376 12.8821C43.5321 12.9876 43.389 13.0469 43.2398 13.0469Z" fill="#111928"/>
<path d="M47.531 25.2246H31.7891C31.6399 25.2246 31.4968 25.1653 31.3913 25.0599C31.2858 24.9544 31.2266 24.8113 31.2266 24.6621C31.2266 24.5129 31.2858 24.3699 31.3913 24.2644C31.4968 24.1589 31.6399 24.0996 31.7891 24.0996H47.531C47.6802 24.0996 47.8233 24.1589 47.9287 24.2644C48.0342 24.3699 48.0935 24.5129 48.0935 24.6621C48.0935 24.8113 48.0342 24.9544 47.9287 25.0599C47.8233 25.1653 47.6802 25.2246 47.531 25.2246Z" fill="#111928"/>
<path d="M16.4062 25.2246H0.65625C0.507066 25.2246 0.363992 25.1653 0.258502 25.0599C0.153013 24.9544 0.09375 24.8113 0.09375 24.6621C0.09375 24.5129 0.153013 24.3699 0.258502 24.2644C0.363992 24.1589 0.507066 24.0996 0.65625 24.0996H16.4062C16.5554 24.0996 16.6985 24.1589 16.804 24.2644C16.9095 24.3699 16.9688 24.5129 16.9688 24.6621C16.9688 24.8113 16.9095 24.9544 16.804 25.0599C16.6985 25.1653 16.5554 25.2246 16.4062 25.2246Z" fill="#111928"/>
<path d="M6.08594 33.2061C5.64093 33.2061 5.20592 33.0741 4.83591 32.8269C4.46589 32.5796 4.17751 32.2282 4.00721 31.8171C3.83691 31.406 3.79235 30.9536 3.87917 30.5171C3.96599 30.0806 4.18028 29.6797 4.49495 29.3651C4.80962 29.0504 5.21053 28.8361 5.64699 28.7493C6.08344 28.6625 6.53584 28.707 6.94698 28.8773C7.35811 29.0476 7.70951 29.336 7.95675 29.706C8.20398 30.076 8.33594 30.511 8.33594 30.9561C8.33539 31.5526 8.09816 32.1246 7.67633 32.5464C7.25449 32.9683 6.68251 33.2055 6.08594 33.2061ZM6.08594 29.8311C5.86343 29.8311 5.64593 29.897 5.46092 30.0207C5.27592 30.1443 5.13172 30.32 5.04657 30.5255C4.96143 30.7311 4.93915 30.9573 4.98256 31.1755C5.02596 31.3938 5.13311 31.5942 5.29044 31.7515C5.44778 31.9089 5.64823 32.016 5.86646 32.0594C6.08469 32.1028 6.31089 32.0806 6.51646 31.9954C6.72202 31.9103 6.89772 31.7661 7.02134 31.5811C7.14496 31.3961 7.21094 31.1786 7.21094 30.9561C7.21094 30.6577 7.09241 30.3715 6.88143 30.1606C6.67046 29.9496 6.38431 29.8311 6.08594 29.8311Z" fill="#111928"/>
<path d="M12.0938 38.9111C11.6487 38.9111 11.2137 38.7792 10.8437 38.5319C10.4737 38.2847 10.1853 37.9333 10.015 37.5222C9.84472 37.111 9.80017 36.6586 9.88698 36.2222C9.9738 35.7857 10.1881 35.3848 10.5028 35.0701C10.8174 34.7555 11.2183 34.5412 11.6548 34.4544C12.0913 34.3676 12.5437 34.4121 12.9548 34.5824C13.3659 34.7527 13.7173 35.0411 13.9646 35.4111C14.2118 35.7811 14.3438 36.2161 14.3438 36.6611C14.3432 37.2577 14.106 37.8297 13.6841 38.2515C13.2623 38.6734 12.6903 38.9106 12.0938 38.9111ZM12.0938 35.5371C11.8712 35.5371 11.6537 35.6031 11.4687 35.7267C11.2837 35.8503 11.1395 36.026 11.0544 36.2316C10.9692 36.4371 10.947 36.6633 10.9904 36.8815C11.0338 37.0998 11.1409 37.3002 11.2983 37.4576C11.4556 37.6149 11.656 37.722 11.8743 37.7655C12.0925 37.8089 12.3187 37.7866 12.5243 37.7014C12.7298 37.6163 12.9055 37.4721 13.0292 37.2871C13.1528 37.1021 13.2188 36.8846 13.2188 36.6621C13.2188 36.3637 13.1002 36.0776 12.8892 35.8666C12.6783 35.6556 12.3921 35.5371 12.0938 35.5371Z" fill="#111928"/>
<path d="M24.0938 38.9111C23.6487 38.9111 23.2137 38.7792 22.8437 38.5319C22.4737 38.2847 22.1853 37.9333 22.015 37.5222C21.8447 37.111 21.8002 36.6586 21.887 36.2222C21.9738 35.7857 22.1881 35.3848 22.5028 35.0701C22.8174 34.7555 23.2183 34.5412 23.6548 34.4544C24.0913 34.3676 24.5437 34.4121 24.9548 34.5824C25.3659 34.7527 25.7173 35.0411 25.9646 35.4111C26.2118 35.7811 26.3438 36.2161 26.3438 36.6611C26.3432 37.2577 26.106 37.8297 25.6841 38.2515C25.2623 38.6734 24.6903 38.9106 24.0938 38.9111ZM24.0938 35.5371C23.8712 35.5371 23.6537 35.6031 23.4687 35.7267C23.2837 35.8503 23.1395 36.026 23.0544 36.2316C22.9692 36.4371 22.947 36.6633 22.9904 36.8815C23.0338 37.0998 23.1409 37.3002 23.2983 37.4576C23.4556 37.6149 23.656 37.722 23.8743 37.7655C24.0925 37.8089 24.3187 37.7866 24.5243 37.7014C24.7298 37.6163 24.9055 37.4721 25.0292 37.2871C25.1528 37.1021 25.2188 36.8846 25.2188 36.6621C25.2188 36.3637 25.1002 36.0776 24.8892 35.8666C24.6783 35.6556 24.3921 35.5371 24.0938 35.5371Z" fill="#111928"/>
<path d="M36.0938 38.9111C35.6487 38.9111 35.2137 38.7792 34.8437 38.5319C34.4737 38.2847 34.1853 37.9333 34.015 37.5222C33.8447 37.111 33.8002 36.6586 33.887 36.2222C33.9738 35.7857 34.1881 35.3848 34.5028 35.0701C34.8174 34.7555 35.2183 34.5412 35.6548 34.4544C36.0913 34.3676 36.5437 34.4121 36.9548 34.5824C37.3659 34.7527 37.7173 35.0411 37.9646 35.4111C38.2118 35.7811 38.3438 36.2161 38.3438 36.6611C38.3432 37.2577 38.106 37.8297 37.6841 38.2515C37.2623 38.6734 36.6903 38.9106 36.0938 38.9111ZM36.0938 35.5371C35.8712 35.5371 35.6537 35.6031 35.4687 35.7267C35.2837 35.8503 35.1395 36.026 35.0544 36.2316C34.9692 36.4371 34.947 36.6633 34.9904 36.8815C35.0338 37.0998 35.1409 37.3002 35.2983 37.4576C35.4556 37.6149 35.656 37.722 35.8743 37.7655C36.0925 37.8089 36.3187 37.7866 36.5243 37.7014C36.7298 37.6163 36.9055 37.4721 37.0292 37.2871C37.1528 37.1021 37.2188 36.8846 37.2188 36.6621C37.2188 36.3637 37.1002 36.0776 36.8892 35.8666C36.6783 35.6556 36.3921 35.5371 36.0938 35.5371Z" fill="#111928"/>
<path d="M18.0938 33.2061C17.6487 33.2061 17.2137 33.0741 16.8437 32.8269C16.4737 32.5796 16.1853 32.2282 16.015 31.8171C15.8447 31.406 15.8002 30.9536 15.887 30.5171C15.9738 30.0806 16.1881 29.6797 16.5028 29.3651C16.8174 29.0504 17.2183 28.8361 17.6548 28.7493C18.0913 28.6625 18.5437 28.707 18.9548 28.8773C19.3659 29.0476 19.7173 29.336 19.9646 29.706C20.2118 30.076 20.3438 30.511 20.3438 30.9561C20.3432 31.5526 20.106 32.1246 19.6841 32.5464C19.2623 32.9683 18.6903 33.2055 18.0938 33.2061ZM18.0938 29.8311C17.8712 29.8311 17.6537 29.897 17.4687 30.0207C17.2837 30.1443 17.1395 30.32 17.0544 30.5255C16.9692 30.7311 16.947 30.9573 16.9904 31.1755C17.0338 31.3938 17.1409 31.5942 17.2983 31.7515C17.4556 31.9089 17.656 32.016 17.8743 32.0594C18.0925 32.1028 18.3187 32.0806 18.5243 31.9954C18.7298 31.9103 18.9055 31.7661 19.0292 31.5811C19.1528 31.3961 19.2188 31.1786 19.2188 30.9561C19.2185 30.6578 19.0999 30.3718 18.889 30.1608C18.678 29.9499 18.392 29.8313 18.0938 29.8311Z" fill="#111928"/>
<path d="M30.1016 33.2061C29.6566 33.2061 29.2215 33.0741 28.8515 32.8269C28.4815 32.5796 28.1931 32.2282 28.0228 31.8171C27.8525 31.406 27.808 30.9536 27.8948 30.5171C27.9816 30.0806 28.1959 29.6797 28.5106 29.3651C28.8252 29.0504 29.2262 28.8361 29.6626 28.7493C30.0991 28.6625 30.5515 28.707 30.9626 28.8773C31.3737 29.0476 31.7251 29.336 31.9724 29.706C32.2196 30.076 32.3516 30.511 32.3516 30.9561C32.351 31.5526 32.1138 32.1246 31.692 32.5464C31.2701 32.9683 30.6981 33.2055 30.1016 33.2061ZM30.1016 29.8311C29.8791 29.8311 29.6616 29.897 29.4765 30.0207C29.2915 30.1443 29.1473 30.32 29.0622 30.5255C28.9771 30.7311 28.9548 30.9573 28.9982 31.1755C29.0416 31.3938 29.1487 31.5942 29.3061 31.7515C29.4634 31.9089 29.6639 32.016 29.8821 32.0594C30.1003 32.1028 30.3265 32.0806 30.5321 31.9954C30.7376 31.9103 30.9133 31.7661 31.037 31.5811C31.1606 31.3961 31.2266 31.1786 31.2266 30.9561C31.2266 30.6577 31.108 30.3715 30.8971 30.1606C30.6861 29.9496 30.3999 29.8311 30.1016 29.8311Z" fill="#111928"/>
<path d="M42.1094 33.2061C41.6644 33.2061 41.2294 33.0741 40.8593 32.8269C40.4893 32.5796 40.2009 32.2282 40.0306 31.8171C39.8603 31.406 39.8158 30.9536 39.9026 30.5171C39.9894 30.0806 40.2037 29.6797 40.5184 29.3651C40.8331 29.0504 41.234 28.8361 41.6704 28.7493C42.1069 28.6625 42.5593 28.707 42.9704 28.8773C43.3815 29.0476 43.7329 29.336 43.9802 29.706C44.2274 30.076 44.3594 30.511 44.3594 30.9561C44.3588 31.5526 44.1216 32.1246 43.6998 32.5464C43.2779 32.9683 42.7059 33.2055 42.1094 33.2061ZM42.1094 29.8311C41.8869 29.8311 41.6694 29.897 41.4844 30.0207C41.2994 30.1443 41.1552 30.32 41.07 30.5255C40.9849 30.7311 40.9626 30.9573 41.006 31.1755C41.0494 31.3938 41.1565 31.5942 41.3139 31.7515C41.4712 31.9089 41.6717 32.016 41.8899 32.0594C42.1081 32.1028 42.3343 32.0806 42.5399 31.9954C42.7455 31.9103 42.9212 31.7661 43.0448 31.5811C43.1684 31.3961 43.2344 31.1786 43.2344 30.9561C43.2344 30.6577 43.1159 30.3715 42.9049 30.1606C42.6939 29.9496 42.4077 29.8311 42.1094 29.8311Z" fill="#111928"/>
<path d="M24.0938 29.8334C20.6944 29.8334 17.9288 26.5463 17.9288 22.5059C17.9229 21.3796 18.1439 20.2637 18.5784 19.2246H0.65625C0.507066 19.2246 0.363992 19.1653 0.258502 19.0599C0.153013 18.9544 0.09375 18.8113 0.09375 18.6621C0.09375 18.5129 0.153013 18.3699 0.258502 18.2644C0.363992 18.1589 0.507066 18.0996 0.65625 18.0996H18.6257C18.8077 18.0994 18.9868 18.1446 19.147 18.231C19.3071 18.3174 19.4432 18.4424 19.5429 18.5946C19.6419 18.744 19.7021 18.9156 19.7181 19.094C19.7341 19.2725 19.7054 19.4521 19.6346 19.6167C19.2482 20.5307 19.0505 21.5135 19.0534 22.5059C19.0534 25.926 21.3144 28.7084 24.0934 28.7084C26.8723 28.7084 29.1315 25.926 29.1315 22.5059C29.1341 21.5134 28.9364 20.5307 28.5503 19.6165C28.4795 19.4519 28.4508 19.2722 28.4669 19.0938C28.483 18.9154 28.5433 18.7437 28.6423 18.5944C28.7421 18.4423 28.8781 18.3174 29.0382 18.231C29.1983 18.1446 29.3774 18.0994 29.5594 18.0996H47.5312C47.6804 18.0996 47.8235 18.1589 47.929 18.2644C48.0345 18.3699 48.0938 18.5129 48.0938 18.6621C48.0938 18.8113 48.0345 18.9544 47.929 19.0599C47.8235 19.1653 47.6804 19.2246 47.5312 19.2246H29.6062C30.0409 20.2637 30.2621 21.3796 30.2567 22.5059C30.2572 26.5463 27.4926 29.8334 24.0938 29.8334Z" fill="#111928"/>
</g>
<defs>
<clipPath id="clip0_6463_10689">
<rect width="48" height="48" fill="white"/>
</clipPath>
</defs>
</svg>
