<svg width="20" height="20" viewBox="0 0 20 20" fill="none" xmlns="http://www.w3.org/2000/svg">
<g clip-path="url(#clip0_6690_7741)">
<path d="M9.21875 13.3127C9.59375 13.3127 9.9375 13.0002 9.9375 12.5939V7.90642C9.9375 6.21892 11.3125 4.84392 13 4.84392H16.7187L14.9062 6.56267C14.625 6.84392 14.625 7.28142 14.875 7.56267C15 7.71892 15.1875 7.78142 15.375 7.78142C15.5625 7.78142 15.7187 7.71892 15.8437 7.59392L18.7187 4.87517C18.9062 4.68767 19.0312 4.40642 19.0312 4.12517C19.0312 3.84392 18.9062 3.59392 18.7187 3.40642L15.8437 0.750172C15.5625 0.500172 15.125 0.500172 14.8437 0.781422C14.5937 1.06267 14.5937 1.50017 14.875 1.78142L16.6875 3.46892H12.9375C10.4688 3.46892 8.46875 5.46892 8.46875 7.93767V12.6252C8.53125 13.0002 8.84375 13.3127 9.21875 13.3127Z" fill="#303030"/>
<path d="M18.4375 11.9062C18.0625 11.9062 17.7188 12.2188 17.7188 12.625V17.1563C17.7188 17.6563 17.3125 18.0625 16.8125 18.0625H3.1875C2.6875 18.0625 2.28125 17.6563 2.28125 17.1563V12.5937C2.28125 12.2187 1.96875 11.875 1.5625 11.875C1.15625 11.875 0.84375 12.1875 0.84375 12.5937V17.125C0.84375 18.4063 1.875 19.4375 3.15625 19.4375H16.8125C18.0937 19.4375 19.125 18.4063 19.125 17.125V12.5937C19.1563 12.2187 18.8437 11.9062 18.4375 11.9062Z" fill="#303030"/>
</g>
<defs>
<clipPath id="clip0_6690_7741">
<rect width="20" height="20" fill="white"/>
</clipPath>
</defs>
</svg>
