<svg width="47" height="43" viewBox="0 0 47 43" fill="none" xmlns="http://www.w3.org/2000/svg">
<path fill-rule="evenodd" clip-rule="evenodd" d="M0.25 25.8896C0.25 25.4754 0.585786 25.1396 1 25.1396H45.4444C45.8587 25.1396 46.1944 25.4754 46.1944 25.8896C46.1944 26.3039 45.8587 26.6396 45.4444 26.6396H1C0.585786 26.6396 0.25 26.3039 0.25 25.8896Z" fill="#111928"/>
<path fill-rule="evenodd" clip-rule="evenodd" d="M0.25 29.001C0.25 28.5868 0.585786 28.251 1 28.251C2.51713 28.251 3.77259 29.0921 4.84104 29.808C4.90371 29.85 4.96574 29.8916 5.02714 29.9325C6.20777 30.7196 7.25451 31.3621 8.55556 31.3621C9.82521 31.3621 10.6387 30.7516 11.6507 29.9645C11.6655 29.953 11.6803 29.9414 11.6953 29.9298C12.6745 29.1679 13.8528 28.251 15.6667 28.251C17.422 28.251 18.5872 29.1129 19.5838 29.8501C19.6304 29.8846 19.6767 29.9189 19.7227 29.9527C20.7635 30.7197 21.7041 31.3621 23.2222 31.3621C24.708 31.3621 25.4158 30.7517 26.2839 29.9921L26.2972 29.9805C27.2041 29.1869 28.2736 28.251 30.3333 28.251C32.387 28.251 33.5622 29.1787 34.5323 29.9776L34.5819 30.0184C35.5205 30.7917 36.2129 31.3621 37.4444 31.3621C38.6585 31.3621 39.4449 30.8099 40.5103 30.0618C40.5664 30.0225 40.6233 29.9825 40.681 29.9421C41.8275 29.1396 43.2081 28.251 45.4444 28.251C45.8587 28.251 46.1944 28.5868 46.1944 29.001C46.1944 29.4152 45.8587 29.751 45.4444 29.751C43.6808 29.751 42.617 30.4179 41.5412 31.171C41.466 31.2236 41.3901 31.2773 41.3134 31.3315C40.3018 32.0467 39.1484 32.8621 37.4444 32.8621C35.6669 32.8621 34.5988 31.9788 33.6998 31.2354C33.6591 31.2018 33.6188 31.1684 33.5788 31.1355C32.66 30.3788 31.8352 29.751 30.3333 29.751C28.8475 29.751 28.1397 30.3614 27.2717 31.121L27.2584 31.1326C26.3515 31.9261 25.2819 32.8621 23.2222 32.8621C21.1848 32.8621 19.9032 31.949 18.8329 31.1603L18.7832 31.1237C17.7246 30.3434 16.9207 29.751 15.6667 29.751C14.397 29.751 13.5835 30.3615 12.5716 31.1485C12.5567 31.1601 12.5419 31.1716 12.527 31.1832C11.5477 31.9452 10.3694 32.8621 8.55556 32.8621C6.74549 32.8621 5.34779 31.949 4.19509 31.1806L4.16156 31.1582C2.95328 30.3526 2.05085 29.751 1 29.751C0.585786 29.751 0.25 29.4152 0.25 29.001Z" fill="#111928"/>
<circle cx="5.55469" cy="37.1113" r="1" fill="#111928"/>
<circle cx="14.4453" cy="37.1113" r="1" fill="#111928"/>
<circle cx="18.8906" cy="41.5557" r="1" fill="#111928"/>
<circle cx="10" cy="41.5557" r="1" fill="#111928"/>
<circle cx="27.7773" cy="41.5557" r="1" fill="#111928"/>
<circle cx="36.668" cy="41.5557" r="1" fill="#111928"/>
<circle cx="23.332" cy="37.1113" r="1" fill="#111928"/>
<circle cx="32.2227" cy="37.1113" r="1" fill="#111928"/>
<circle cx="40.2227" cy="37.1113" r="1" fill="#111928"/>
<path fill-rule="evenodd" clip-rule="evenodd" d="M16.041 18.7703L15.7204 23.2588C15.7007 23.5343 15.4615 23.7416 15.1861 23.7219L10.6975 23.4013C10.4221 23.3817 10.2147 23.1424 10.2344 22.867C10.2541 22.5915 10.4933 22.3842 10.7687 22.4039L14.2005 22.649L14.7984 22.1308L15.0436 18.699C15.0632 18.4236 15.3025 18.2162 15.5779 18.2359C15.8534 18.2556 16.0607 18.4948 16.041 18.7703ZM3.33866 9.51203C3.54734 9.33117 3.86312 9.35373 4.04397 9.56241L4.76619 10.3957L4.0105 11.0507L3.28828 10.2173C3.10743 10.0087 3.12998 9.69288 3.33866 9.51203ZM6.89939 14.384L5.45495 12.7173L6.21064 12.0624L7.65508 13.7291L6.89939 14.384ZM9.78828 17.7173L8.34384 16.0507L9.09953 15.3957L10.544 17.0624L9.78828 17.7173ZM12.6772 21.0507L11.2327 19.384L11.9884 18.7291L13.4329 20.3957L12.6772 21.0507Z" fill="#111928"/>
<path fill-rule="evenodd" clip-rule="evenodd" d="M24.041 18.7703L23.7204 23.2588C23.7007 23.5343 23.4615 23.7416 23.1861 23.7219L18.6975 23.4013C18.4221 23.3817 18.2147 23.1424 18.2344 22.867C18.2541 22.5915 18.4933 22.3842 18.7687 22.4039L22.2005 22.649L22.7984 22.1308L23.0436 18.699C23.0632 18.4236 23.3025 18.2162 23.5779 18.2359C23.8534 18.2556 24.0607 18.4948 24.041 18.7703ZM11.3387 9.51203C11.5473 9.33117 11.8631 9.35373 12.044 9.56241L12.7662 10.3957L12.0105 11.0507L11.2883 10.2173C11.1074 10.0087 11.13 9.69288 11.3387 9.51203ZM14.8994 14.384L13.4549 12.7173L14.2106 12.0624L15.6551 13.7291L14.8994 14.384ZM17.7883 17.7173L16.3438 16.0507L17.0995 15.3957L18.544 17.0624L17.7883 17.7173ZM20.6772 21.0507L19.2327 19.384L19.9884 18.7291L21.4329 20.3957L20.6772 21.0507Z" fill="#111928"/>
<path fill-rule="evenodd" clip-rule="evenodd" d="M32.9316 18.7703L32.611 23.2588C32.5914 23.5343 32.3521 23.7416 32.0767 23.7219L27.5881 23.4013C27.3127 23.3817 27.1053 23.1424 27.125 22.867C27.1447 22.5915 27.3839 22.3842 27.6594 22.4039L31.0911 22.649L31.6891 22.1308L31.9342 18.699C31.9539 18.4236 32.1931 18.2162 32.4685 18.2359C32.744 18.2556 32.9513 18.4948 32.9316 18.7703ZM20.2293 9.51203C20.438 9.33117 20.7537 9.35373 20.9346 9.56241L21.6568 10.3957L20.9011 11.0507L20.1789 10.2173C19.9981 10.0087 20.0206 9.69288 20.2293 9.51203ZM23.79 14.384L22.3456 12.7173L23.1013 12.0624L24.5457 13.7291L23.79 14.384ZM26.6789 17.7173L25.2345 16.0507L25.9902 15.3957L27.4346 17.0624L26.6789 17.7173ZM29.5678 21.0507L28.1234 19.384L28.879 18.7291L30.3235 20.3957L29.5678 21.0507Z" fill="#111928"/>
<path d="M10.8984 0.455078L12.6019 5.60707H12.669L14.3693 0.455078H15.6733L13.3658 7.00053H11.902L9.59766 0.455078H10.8984Z" fill="#111928"/>
<path d="M7.54794 0.455078H8.73366V4.73136C8.73366 5.20011 8.62287 5.61239 8.40128 5.96822C8.18182 6.32404 7.87287 6.6021 7.47443 6.80238C7.07599 7.00053 6.61044 7.09961 6.07777 7.09961C5.54297 7.09961 5.07635 7.00053 4.67791 6.80238C4.27947 6.6021 3.97053 6.32404 3.75107 5.96822C3.53161 5.61239 3.42188 5.20011 3.42188 4.73136V0.455078H4.6076V4.63228C4.6076 4.90501 4.66726 5.14791 4.78658 5.36097C4.90803 5.57404 5.07848 5.7413 5.29794 5.86275C5.5174 5.98207 5.77734 6.04173 6.07777 6.04173C6.3782 6.04173 6.63814 5.98207 6.8576 5.86275C7.07919 5.7413 7.24964 5.57404 7.36896 5.36097C7.48828 5.14791 7.54794 4.90501 7.54794 4.63228V0.455078Z" fill="#111928"/>
</svg>
