<svg width="48" height="48" viewBox="0 0 48 48" fill="none" xmlns="http://www.w3.org/2000/svg">
<g clip-path="url(#clip0_6463_10617)">
<path fill-rule="evenodd" clip-rule="evenodd" d="M0.09375 26.5312C0.09375 26.2206 0.34559 25.9688 0.65625 25.9688C1.45716 25.9688 2.07934 26.1113 2.60831 26.3357C3.12012 26.5527 3.52668 26.8401 3.88303 27.0921L3.89873 27.1032C4.26807 27.3642 4.58657 27.5872 4.97905 27.7536C5.3619 27.916 5.8339 28.0312 6.49192 28.0312C7.14993 28.0312 7.62193 27.916 8.00479 27.7536C8.39728 27.5872 8.71578 27.3642 9.08514 27.1032L9.10081 27.0921C9.45718 26.8402 9.86377 26.5527 10.3756 26.3357C10.9046 26.1113 11.5268 25.9688 12.3278 25.9688C13.1287 25.9688 13.7509 26.1113 14.2799 26.3357C14.7917 26.5527 15.1982 26.8402 15.5546 27.0921L15.5703 27.1032C15.9396 27.3642 16.2581 27.5872 16.6506 27.7536C17.0334 27.916 17.5054 28.0312 18.1634 28.0312C18.8213 28.0312 19.2933 27.916 19.6762 27.7536C20.0686 27.5872 20.3871 27.3642 20.7565 27.1032L20.7721 27.0921C21.1285 26.8402 21.5351 26.5527 22.0469 26.3357C22.5759 26.1113 23.1981 25.9688 23.999 25.9688C24.8 25.9688 25.4222 26.1113 25.9512 26.3357C26.4631 26.5527 26.8696 26.8402 27.226 27.0921L27.2417 27.1032C27.611 27.3642 27.9296 27.5872 28.322 27.7536C28.7049 27.916 29.1769 28.0312 29.8349 28.0312C30.4929 28.0312 30.9649 27.916 31.3478 27.7536C31.7403 27.5872 32.0588 27.3642 32.4281 27.1032L32.4438 27.0921C32.8002 26.8402 33.2067 26.5527 33.7186 26.3357C34.2476 26.1113 34.8698 25.9688 35.6707 25.9688C36.4717 25.9688 37.094 26.1113 37.623 26.3357C38.1349 26.5527 38.5416 26.8401 38.898 27.0921L38.9136 27.1031C39.2831 27.3642 39.6016 27.5872 39.9941 27.7536C40.377 27.916 40.8491 28.0312 41.5072 28.0312C42.1653 28.0312 42.6374 27.916 43.0203 27.7536C43.4128 27.5872 43.7314 27.3642 44.1008 27.1031L44.1165 27.0921C44.4729 26.8401 44.8795 26.5527 45.3914 26.3357C45.9204 26.1113 46.5427 25.9688 47.3438 25.9688C47.6544 25.9688 47.9062 26.2206 47.9062 26.5312C47.9062 26.8419 47.6544 27.0938 47.3438 27.0938C46.6856 27.0938 46.2135 27.209 45.8306 27.3714C45.438 27.5378 45.1195 27.7608 44.7501 28.0219L44.7344 28.033C44.378 28.2849 43.9714 28.5723 43.4595 28.7893C42.9305 29.0137 42.3082 29.1562 41.5072 29.1562C40.7062 29.1562 40.084 29.0137 39.5549 28.7893C39.043 28.5723 38.6364 28.2849 38.28 28.0329L38.2643 28.0219C37.8949 27.7608 37.5764 27.5378 37.1838 27.3714C36.8009 27.209 36.3288 27.0938 35.6707 27.0938C35.0127 27.0938 34.5407 27.209 34.1578 27.3714C33.7653 27.5378 33.4468 27.7608 33.0775 28.0218L33.0618 28.0329C32.7054 28.2848 32.2989 28.5723 31.787 28.7893C31.258 29.0137 30.6358 29.1562 29.8349 29.1562C29.034 29.1562 28.4118 29.0137 27.8828 28.7893C27.371 28.5723 26.9644 28.2849 26.608 28.0329L26.5923 28.0218C26.223 27.7608 25.9045 27.5378 25.512 27.3714C25.1291 27.209 24.6571 27.0938 23.999 27.0938C23.341 27.0938 22.869 27.209 22.4862 27.3714C22.0937 27.5378 21.7752 27.7608 21.4058 28.0218L21.3901 28.0329C21.0338 28.2848 20.6272 28.5723 20.1154 28.7893C19.5865 29.0137 18.9643 29.1562 18.1634 29.1562C17.3625 29.1562 16.7403 29.0137 16.2113 28.7893C15.6995 28.5723 15.2929 28.2848 14.9366 28.0329L14.9209 28.0218C14.5515 27.7608 14.2331 27.5378 13.8406 27.3714C13.4578 27.209 12.9858 27.0938 12.3278 27.0938C11.6698 27.0938 11.1977 27.209 10.8149 27.3714C10.4224 27.5378 10.1039 27.7608 9.73449 28.0218L9.71879 28.0329C9.36243 28.2849 8.95586 28.5723 8.44404 28.7893C7.91505 29.0137 7.29285 29.1562 6.49192 29.1562C5.69099 29.1562 5.06878 29.0137 4.5398 28.7893C4.02796 28.5723 3.62139 28.2848 3.26502 28.0329L3.24936 28.0218C2.88001 27.7608 2.56152 27.5378 2.16905 27.3714C1.78621 27.209 1.31423 27.0938 0.65625 27.0938C0.34559 27.0938 0.09375 26.8419 0.09375 26.5312Z" fill="#111928"/>
<path d="M1.08761 39.5623C1.68829 39.5623 2.17523 39.0816 2.17523 38.4887C2.17523 37.8957 1.68829 37.415 1.08761 37.415C0.486942 37.415 0 37.8957 0 38.4887C0 39.0816 0.486942 39.5623 1.08761 39.5623Z" fill="#111928"/>
<path d="M6.36887 34.5848C6.96954 34.5848 7.45648 34.1041 7.45648 33.5111C7.45648 32.9182 6.96954 32.4375 6.36887 32.4375C5.76819 32.4375 5.28125 32.9182 5.28125 33.5111C5.28125 34.1041 5.76819 34.5848 6.36887 34.5848Z" fill="#111928"/>
<path d="M12.4978 39.5623C13.0984 39.5623 13.5854 39.0816 13.5854 38.4887C13.5854 37.8957 13.0984 37.415 12.4978 37.415C11.8971 37.415 11.4102 37.8957 11.4102 38.4887C11.4102 39.0816 11.8971 39.5623 12.4978 39.5623Z" fill="#111928"/>
<path d="M17.7751 34.5848C18.3758 34.5848 18.8627 34.1041 18.8627 33.5111C18.8627 32.9182 18.3758 32.4375 17.7751 32.4375C17.1744 32.4375 16.6875 32.9182 16.6875 33.5111C16.6875 34.1041 17.1744 34.5848 17.7751 34.5848Z" fill="#111928"/>
<path d="M23.9079 39.5623C24.5086 39.5623 24.9955 39.0816 24.9955 38.4887C24.9955 37.8957 24.5086 37.415 23.9079 37.415C23.3073 37.415 22.8203 37.8957 22.8203 38.4887C22.8203 39.0816 23.3073 39.5623 23.9079 39.5623Z" fill="#111928"/>
<path d="M29.1853 34.5848C29.7859 34.5848 30.2729 34.1041 30.2729 33.5111C30.2729 32.9182 29.7859 32.4375 29.1853 32.4375C28.5846 32.4375 28.0977 32.9182 28.0977 33.5111C28.0977 34.1041 28.5846 34.5848 29.1853 34.5848Z" fill="#111928"/>
<path d="M35.3142 39.5623C35.9149 39.5623 36.4018 39.0816 36.4018 38.4887C36.4018 37.8957 35.9149 37.415 35.3142 37.415C34.7135 37.415 34.2266 37.8957 34.2266 38.4887C34.2266 39.0816 34.7135 39.5623 35.3142 39.5623Z" fill="#111928"/>
<path d="M40.5954 34.5848C41.1961 34.5848 41.683 34.1041 41.683 33.5111C41.683 32.9182 41.1961 32.4375 40.5954 32.4375C39.9948 32.4375 39.5078 32.9182 39.5078 33.5111C39.5078 34.1041 39.9948 34.5848 40.5954 34.5848Z" fill="#111928"/>
<path d="M46.7243 39.5623C47.325 39.5623 47.8119 39.0816 47.8119 38.4887C47.8119 37.8957 47.325 37.415 46.7243 37.415C46.1237 37.415 45.6367 37.8957 45.6367 38.4887C45.6367 39.0816 46.1237 39.5623 46.7243 39.5623Z" fill="#111928"/>
<path d="M47.4375 21.9375H0.5625C0.413316 21.9375 0.270242 21.8782 0.164752 21.7727C0.0592632 21.6673 0 21.5242 0 21.375C0 21.2258 0.0592632 21.0827 0.164752 20.9773C0.270242 20.8718 0.413316 20.8125 0.5625 20.8125H47.4375C47.5867 20.8125 47.7298 20.8718 47.8352 20.9773C47.9407 21.0827 48 21.2258 48 21.375C48 21.5242 47.9407 21.6673 47.8352 21.7727C47.7298 21.8782 47.5867 21.9375 47.4375 21.9375Z" fill="#111928"/>
<path d="M13.336 8.91257C13.3361 8.98645 13.3216 9.05962 13.2933 9.12787C13.265 9.19612 13.2235 9.2581 13.1712 9.31025L10.3384 12.1436C10.2863 12.1965 10.2243 12.2386 10.1559 12.2674C10.0874 12.2962 10.014 12.3112 9.93972 12.3115C9.86547 12.3118 9.79189 12.2974 9.72324 12.2691C9.65458 12.2408 9.5922 12.1992 9.53971 12.1467C9.48721 12.0942 9.44562 12.0318 9.41736 11.9632C9.38909 11.8945 9.37469 11.8209 9.375 11.7467C9.37532 11.6724 9.39033 11.599 9.41917 11.5305C9.44801 11.4621 9.49011 11.4001 9.54305 11.348L12.3764 8.51525C12.455 8.43683 12.5552 8.38345 12.6641 8.36185C12.7731 8.34026 12.886 8.35141 12.9887 8.39391C13.0913 8.4364 13.1791 8.50834 13.2409 8.60064C13.3027 8.69294 13.3358 8.80148 13.336 8.91257Z" fill="#111928"/>
<path d="M16.1672 11.7462C16.1672 11.8574 16.1342 11.9662 16.0724 12.0587C16.0106 12.1511 15.9227 12.2232 15.82 12.2658C15.7172 12.3083 15.6041 12.3195 15.495 12.2978C15.3859 12.2761 15.2857 12.2225 15.207 12.1439L12.3748 9.31096C12.3211 9.25907 12.2783 9.19701 12.2488 9.12838C12.2193 9.05975 12.2038 8.98594 12.2031 8.91125C12.2025 8.83656 12.2167 8.76249 12.245 8.69336C12.2733 8.62423 12.3151 8.56143 12.3679 8.50862C12.4207 8.4558 12.4835 8.41403 12.5526 8.38575C12.6218 8.35747 12.6958 8.34324 12.7705 8.34388C12.8452 8.34453 12.919 8.36005 12.9876 8.38953C13.0563 8.41901 13.1183 8.46186 13.1702 8.51559L16.0024 11.3483C16.0547 11.4005 16.0962 11.4626 16.1245 11.5308C16.1528 11.5991 16.1673 11.6723 16.1672 11.7462Z" fill="#111928"/>
<path d="M45.0235 8.91257C45.0236 8.98645 45.0091 9.05962 44.9808 9.12787C44.9525 9.19612 44.911 9.2581 44.8587 9.31025L42.0259 12.1436C41.9738 12.1965 41.9118 12.2386 41.8434 12.2674C41.7749 12.2962 41.7015 12.3112 41.6272 12.3115C41.553 12.3118 41.4794 12.2974 41.4107 12.2691C41.3421 12.2408 41.2797 12.1992 41.2272 12.1467C41.1747 12.0942 41.1331 12.0318 41.1049 11.9632C41.0766 11.8945 41.0622 11.8209 41.0625 11.7467C41.0628 11.6724 41.0778 11.599 41.1067 11.5305C41.1355 11.4621 41.1776 11.4001 41.2306 11.348L44.0639 8.51525C44.1425 8.43683 44.2427 8.38345 44.3516 8.36185C44.4606 8.34026 44.5735 8.35141 44.6762 8.39391C44.7788 8.4364 44.8666 8.50834 44.9284 8.60064C44.9902 8.69294 45.0233 8.80148 45.0235 8.91257Z" fill="#111928"/>
<path d="M47.8547 11.7462C47.8547 11.8574 47.8217 11.9662 47.7599 12.0587C47.6981 12.1511 47.6102 12.2232 47.5075 12.2658C47.4047 12.3083 47.2916 12.3195 47.1825 12.2978C47.0734 12.2761 46.9732 12.2225 46.8945 12.1439L44.0623 9.31096C44.0086 9.25907 43.9658 9.19701 43.9363 9.12838C43.9068 9.05975 43.8913 8.98594 43.8906 8.91125C43.89 8.83656 43.9042 8.76249 43.9325 8.69336C43.9608 8.62423 44.0026 8.56143 44.0554 8.50862C44.1082 8.4558 44.171 8.41403 44.2401 8.38575C44.3093 8.35747 44.3833 8.34324 44.458 8.34388C44.5327 8.34453 44.6065 8.36005 44.6751 8.38953C44.7438 8.41901 44.8058 8.46186 44.8577 8.51559L47.6899 11.3483C47.7422 11.4005 47.7837 11.4626 47.812 11.5308C47.8403 11.5991 47.8548 11.6723 47.8547 11.7462Z" fill="#111928"/>
<path d="M27.8672 8.91257C27.8673 8.98645 27.8528 9.05962 27.8245 9.12787C27.7963 9.19612 27.7548 9.2581 27.7024 9.31025L24.8697 12.1436C24.8176 12.1965 24.7555 12.2386 24.6871 12.2674C24.6187 12.2962 24.5452 12.3112 24.471 12.3115C24.3967 12.3118 24.3231 12.2974 24.2545 12.2691C24.1858 12.2408 24.1235 12.1992 24.071 12.1467C24.0185 12.0942 23.9769 12.0318 23.9486 11.9632C23.9203 11.8945 23.9059 11.8209 23.9063 11.7467C23.9066 11.6724 23.9216 11.599 23.9504 11.5305C23.9793 11.4621 24.0214 11.4001 24.0743 11.348L26.9076 8.51525C26.9863 8.43683 27.0864 8.38345 27.1954 8.36185C27.3044 8.34026 27.4173 8.35141 27.5199 8.39391C27.6226 8.4364 27.7103 8.50834 27.7721 8.60064C27.8339 8.69294 27.867 8.80148 27.8672 8.91257Z" fill="#111928"/>
<path d="M30.6985 11.7462C30.6984 11.8574 30.6654 11.9662 30.6036 12.0587C30.5418 12.1511 30.454 12.2232 30.3512 12.2658C30.2484 12.3083 30.1354 12.3195 30.0263 12.2978C29.9172 12.2761 29.817 12.2225 29.7383 12.1439L26.9061 9.31096C26.8524 9.25907 26.8095 9.19701 26.78 9.12838C26.7506 9.05975 26.735 8.98594 26.7344 8.91125C26.7337 8.83656 26.748 8.76249 26.7763 8.69336C26.8045 8.62423 26.8463 8.56143 26.8991 8.50862C26.9519 8.4558 27.0147 8.41403 27.0839 8.38575C27.153 8.35747 27.2271 8.34324 27.3018 8.34388C27.3765 8.34453 27.4503 8.36005 27.5189 8.38953C27.5875 8.41901 27.6496 8.46186 27.7015 8.51559L30.5337 11.3483C30.586 11.4005 30.6275 11.4626 30.6558 11.5308C30.6841 11.5991 30.6986 11.6723 30.6985 11.7462Z" fill="#111928"/>
<path d="M0.560937 15.8514H8.87956C10.0693 15.8502 11.2099 15.3771 12.0512 14.5359C12.8925 13.6947 13.3658 12.5541 13.3672 11.3644V10.125C13.3672 9.97582 13.3079 9.83274 13.2024 9.72725C13.0969 9.62176 12.9539 9.5625 12.8047 9.5625C12.6555 9.5625 12.5124 9.62176 12.4069 9.72725C12.3015 9.83274 12.2422 9.97582 12.2422 10.125V11.3644C12.2411 12.2558 11.8866 13.1103 11.2562 13.7406C10.6259 14.3709 9.77132 14.7254 8.87994 14.7264H0.560937C0.411753 14.7264 0.268678 14.7857 0.163189 14.8912C0.0577002 14.9967 -0.00156307 15.1398 -0.00156307 15.2889C-0.00156307 15.4381 0.0577002 15.5812 0.163189 15.6867C0.268678 15.7922 0.411753 15.8514 0.560937 15.8514Z" fill="#111928"/>
<path d="M32.2484 15.8514H40.5671C41.7568 15.8502 42.8974 15.3771 43.7387 14.5359C44.58 13.6947 45.0533 12.5541 45.0547 11.3644V10.125C45.0547 9.97582 44.9954 9.83274 44.8899 9.72725C44.7844 9.62176 44.6414 9.5625 44.4922 9.5625C44.343 9.5625 44.1999 9.62176 44.0944 9.72725C43.989 9.83274 43.9297 9.97582 43.9297 10.125V11.3644C43.9286 12.2558 43.5741 13.1103 42.9437 13.7406C42.3134 14.3709 41.4588 14.7254 40.5674 14.7264H32.2484C32.0993 14.7264 31.9562 14.7857 31.8507 14.8912C31.7452 14.9967 31.6859 15.1398 31.6859 15.2889C31.6859 15.4381 31.7452 15.5812 31.8507 15.6867C31.9562 15.7922 32.0993 15.8514 32.2484 15.8514Z" fill="#111928"/>
<path d="M15.0922 15.8514H23.4108C24.6005 15.8502 25.7412 15.3771 26.5825 14.5359C27.4238 13.6947 27.897 12.5541 27.8984 11.3644V10.125C27.8984 9.97582 27.8392 9.83274 27.7337 9.72725C27.6282 9.62176 27.4851 9.5625 27.3359 9.5625C27.1868 9.5625 27.0437 9.62176 26.9382 9.72725C26.8327 9.83274 26.7734 9.97582 26.7734 10.125V11.3644C26.7724 12.2558 26.4178 13.1103 25.7875 13.7406C25.1572 14.3709 24.3026 14.7254 23.4112 14.7264H15.0922C14.943 14.7264 14.7999 14.7857 14.6944 14.8912C14.589 14.9967 14.5297 15.1398 14.5297 15.2889C14.5297 15.4381 14.589 15.5812 14.6944 15.6867C14.7999 15.7922 14.943 15.8514 15.0922 15.8514Z" fill="#111928"/>
</g>
<defs>
<clipPath id="clip0_6463_10617">
<rect width="48" height="48" fill="white"/>
</clipPath>
</defs>
</svg>
