<svg width="48" height="48" viewBox="0 0 48 48" fill="none" xmlns="http://www.w3.org/2000/svg">
<path d="M46.5 38.25H1.5" stroke="#111928" stroke-width="1.5" stroke-linecap="round" stroke-linejoin="round"/>
<path d="M1.5 14.25C4.62525 14.25 5.87475 9.75 9 9.75C12.1252 9.75 13.3748 14.25 16.5 14.25C19.6252 14.25 20.8748 9.75 24 9.75C27.1252 9.75 28.3748 14.25 31.5 14.25C34.6252 14.25 35.8748 9.75 39 9.75C42.1252 9.75 43.3748 14.25 46.5 14.25" stroke="#111928" stroke-width="1.5" stroke-linecap="round" stroke-linejoin="round"/>
<path d="M1.5 23.25C4.62525 23.25 5.87475 20.25 9 20.25C12.1252 20.25 13.3748 23.25 16.5 23.25C19.6252 23.25 20.8748 20.25 24 20.25C27.1252 20.25 28.3748 23.25 31.5 23.25C34.6252 23.25 35.8748 20.25 39 20.25C42.1252 20.25 43.3748 23.25 46.5 23.25" stroke="#111928" stroke-width="1.5" stroke-linecap="round" stroke-linejoin="round"/>
<path d="M1.5 31.5C4.62525 31.5 5.87475 30 9 30C12.1252 30 13.3748 31.5 16.5 31.5C19.6252 31.5 20.8748 30 24 30C27.1252 30 28.3748 31.5 31.5 31.5C34.6252 31.5 35.8748 30 39 30C42.1252 30 43.3748 31.5 46.5 31.5" stroke="#111928" stroke-width="1.5" stroke-linecap="round" stroke-linejoin="round"/>
</svg>
